<svg width="256" height="256" viewBox="0 0 256 256" fill="none" xmlns="http://www.w3.org/2000/svg">
<path d="M28 81C28 72.7157 34.7157 66 43 66H213C221.284 66 228 72.7157 228 81V176C228 184.284 221.284 191 213 191H43C34.7157 191 28 184.284 28 176V81Z" fill="#FF2400"/>
<path d="M74 121V160H54V92H74L94 117L114 92H134V160H114V121L94 146L74 121Z" fill="white"/>
<path d="M169.615 111.424C172.947 119.05 183.484 133.932 198.978 132.448C199.394 128.119 194.105 117.855 169.615 111.424Z" fill="white"/>
<path d="M169.615 111.424C162.742 117.352 145.249 102.512 144 92C160.868 96.3284 165.45 101.893 169.615 111.424Z" fill="white"/>
<path d="M169.615 111.424C172.322 114.843 192.106 106.222 198.978 92C176.487 92 173.988 103.13 169.615 111.424Z" fill="white"/>
<path d="M169.615 111.424C168.99 118.105 162.992 131.663 144 132.448C147.748 126.556 151.497 116.734 169.615 111.424Z" fill="white"/>
<path d="M170.886 111.962C174.884 124.823 168.658 149.488 165.327 160H162.386C165.718 149.488 172.498 124.861 168.5 112L170.886 111.962Z" fill="white"/>
<path d="M74 160V160.5H74.5V160H74ZM74 121L74.3904 120.688L73.5 119.575V121H74ZM94 146L93.6096 146.312L94 146.8L94.3904 146.312L94 146ZM114 121H114.5V119.575L113.61 120.688L114 121ZM114 160H113.5V160.5H114V160ZM134 160V160.5H134.5V160H134ZM134 92H134.5V91.5H134V92ZM114 92V91.5H113.76L113.61 91.6877L114 92ZM94 117L93.6096 117.312L94 117.8L94.3904 117.312L94 117ZM74 92L74.3904 91.6877L74.2403 91.5H74V92ZM54 92V91.5H53.5V92H54ZM54 160H53.5V160.5H54V160ZM198.978 132.448L199.025 132.946L199.436 132.906L199.476 132.496L198.978 132.448ZM144 132.448L143.578 132.179L143.064 132.987L144.021 132.947L144 132.448ZM144 92L144.124 91.5157L143.417 91.3343L143.503 92.059L144 92ZM198.978 92L199.428 92.2175L199.775 91.5L198.978 91.5L198.978 92ZM165.327 160V160.5H165.693L165.803 160.151L165.327 160ZM170.886 111.962L171.363 111.813L171.252 111.456L170.878 111.462L170.886 111.962ZM162.386 160L161.91 159.849L161.703 160.5H162.386V160ZM168.5 112L168.492 111.5L167.824 111.511L168.023 112.148L168.5 112ZM43 66.5H213V65.5H43V66.5ZM227.5 81V176H228.5V81H227.5ZM213 190.5H43V191.5H213V190.5ZM28.5 176V81H27.5V176H28.5ZM43 190.5C34.9919 190.5 28.5 184.008 28.5 176H27.5C27.5 184.56 34.4396 191.5 43 191.5V190.5ZM227.5 176C227.5 184.008 221.008 190.5 213 190.5V191.5C221.56 191.5 228.5 184.56 228.5 176H227.5ZM213 66.5C221.008 66.5 227.5 72.9919 227.5 81H228.5C228.5 72.4396 221.56 65.5 213 65.5V66.5ZM43 65.5C34.4396 65.5 27.5 72.4396 27.5 81H28.5C28.5 72.9919 34.9919 66.5 43 66.5V65.5ZM74.5 160V121H73.5V160H74.5ZM73.6096 121.312L93.6096 146.312L94.3904 145.688L74.3904 120.688L73.6096 121.312ZM94.3904 146.312L114.39 121.312L113.61 120.688L93.6096 145.688L94.3904 146.312ZM113.5 121V160H114.5V121H113.5ZM114 160.5H134V159.5H114V160.5ZM134.5 160V92H133.5V160H134.5ZM134 91.5H114V92.5H134V91.5ZM113.61 91.6877L93.6096 116.688L94.3904 117.312L114.39 92.3123L113.61 91.6877ZM94.3904 116.688L74.3904 91.6877L73.6096 92.3123L93.6096 117.312L94.3904 116.688ZM74 91.5H54V92.5H74V91.5ZM53.5 92V160H54.5V92H53.5ZM54 160.5H74V159.5H54V160.5ZM169.156 111.624C170.846 115.491 174.352 121.181 179.401 125.724C184.454 130.271 191.095 133.705 199.025 132.946L198.93 131.95C191.367 132.674 184.992 129.41 180.07 124.981C175.144 120.548 171.715 114.983 170.073 111.224L169.156 111.624ZM199.476 132.496C199.705 130.116 198.369 126.324 193.971 122.353C189.562 118.372 182.036 114.169 169.742 110.941L169.488 111.908C181.683 115.11 189.047 119.254 193.301 123.096C197.567 126.947 198.668 130.452 198.48 132.4L199.476 132.496ZM169.117 111.378C168.814 114.62 167.198 119.575 163.326 123.81C159.467 128.031 153.347 131.561 143.979 131.948L144.021 132.947C153.645 132.55 160.02 128.909 164.064 124.484C168.096 120.074 169.791 114.91 170.112 111.471L169.117 111.378ZM144.422 132.716C146.332 129.714 148.155 125.871 151.781 122.062C155.386 118.276 160.774 114.536 169.755 111.904L169.474 110.944C160.338 113.622 154.793 117.448 151.057 121.373C147.342 125.276 145.416 129.29 143.578 132.179L144.422 132.716ZM169.288 111.046C167.747 112.375 165.565 112.585 163.021 111.886C160.482 111.188 157.672 109.601 155.01 107.485C152.352 105.373 149.868 102.753 147.974 100.019C146.076 97.278 144.796 94.4574 144.497 91.941L143.503 92.059C143.829 94.7985 145.204 97.7748 147.152 100.588C149.104 103.407 151.657 106.098 154.388 108.268C157.114 110.436 160.044 112.105 162.756 112.85C165.465 113.595 168.046 113.438 169.941 111.803L169.288 111.046ZM143.876 92.4843C152.276 94.6399 157.559 97.0895 161.253 100.146C164.939 103.197 167.087 106.888 169.156 111.624L170.073 111.224C167.978 106.43 165.753 102.573 161.89 99.376C158.035 96.1855 152.592 93.6884 144.124 91.5157L143.876 92.4843ZM169.223 111.735C169.687 112.322 170.461 112.585 171.333 112.653C172.217 112.722 173.294 112.6 174.493 112.318C176.895 111.755 179.881 110.531 182.982 108.762C189.178 105.226 195.933 99.4502 199.428 92.2175L198.528 91.7825C195.15 98.7716 188.577 104.417 182.487 107.893C179.444 109.629 176.548 110.809 174.264 111.345C173.12 111.613 172.154 111.714 171.411 111.656C170.655 111.597 170.219 111.382 170.007 111.114L169.223 111.735ZM198.978 91.5C187.646 91.5 181.259 94.3065 177.156 98.2409C173.096 102.135 171.316 107.125 169.172 111.191L170.057 111.658C172.286 107.429 173.943 102.707 177.848 98.9627C181.711 95.2585 187.818 92.5 198.978 92.5L198.978 91.5ZM165.803 160.151C167.475 154.878 169.871 146.06 171.349 136.942C172.823 127.848 173.4 118.364 171.363 111.813L170.408 112.11C172.37 118.42 171.834 127.7 170.361 136.782C168.893 145.84 166.51 154.61 164.85 159.849L165.803 160.151ZM162.863 160.151C164.532 154.884 167.067 146.077 168.684 136.969C170.297 127.885 171.016 118.407 168.977 111.852L168.023 112.148C169.983 118.454 169.311 127.72 167.7 136.794C166.093 145.842 163.572 154.604 161.91 159.849L162.863 160.151ZM168.508 112.5L170.894 112.462L170.878 111.462L168.492 111.5L168.508 112.5ZM165.327 159.5H162.386V160.5H165.327V159.5Z" fill="white"/>
</svg>
