<svg width="256" height="256" viewBox="0 0 256 256" fill="none" xmlns="http://www.w3.org/2000/svg">
<rect x="33" y="71" width="190" height="115" rx="10" stroke="#FF2400" stroke-width="10"/>
<path d="M74 121V160H54V92H74L94 117L114 92H134V160H114V121L94 146L74 121Z" fill="#FF2400"/>
<path d="M172.615 115.419C175.947 123.044 186.484 137.921 201.978 136.438C202.394 132.11 197.105 121.848 172.615 115.419Z" fill="#FF2400"/>
<path d="M172.615 115.419C165.742 121.345 148.249 106.509 147 96C163.868 100.327 168.45 105.891 172.615 115.419Z" fill="#FF2400"/>
<path d="M172.615 115.419C175.322 118.837 195.106 110.218 201.978 96C179.487 96 176.988 107.127 172.615 115.419Z" fill="#FF2400"/>
<path d="M172.615 115.419C171.99 122.099 165.992 135.653 147 136.438C150.748 130.547 154.497 120.727 172.615 115.419Z" fill="#FF2400"/>
<path d="M167.617 164C170.949 153.491 176.613 128.278 172.615 115.419M172.615 115.419C175.947 123.044 186.484 137.921 201.978 136.438C202.394 132.11 197.105 121.848 172.615 115.419ZM172.615 115.419C171.99 122.099 165.992 135.653 147 136.438C150.748 130.547 154.497 120.727 172.615 115.419ZM172.615 115.419C165.742 121.345 148.249 106.509 147 96C163.868 100.327 168.45 105.891 172.615 115.419ZM172.615 115.419C175.322 118.837 195.106 110.218 201.978 96C179.487 96 176.988 107.127 172.615 115.419Z" stroke="#FF2400" stroke-width="5"/>
</svg>
